<mxfile host="app.diagrams.net" modified="2024-01-27T04:11:46.506Z" agent="Mozilla/5.0 (Macintosh; Intel Mac OS X 10_15_7) AppleWebKit/605.1.15 (KHTML, like Gecko) Version/17.2.1 Safari/605.1.15" etag="PRgksKfn19R6K-HwqPGu" version="23.0.2" type="github">
  <diagram name="Page-1" id="EdF6C7OSrlYoK4mesmU_">
    <mxGraphModel dx="1185" dy="678" grid="1" gridSize="10" guides="1" tooltips="1" connect="1" arrows="1" fold="1" page="1" pageScale="1" pageWidth="850" pageHeight="1100" math="0" shadow="0">
      <root>
        <mxCell id="0" />
        <mxCell id="1" parent="0" />
        <mxCell id="IAKLpK5OhS-ixHeD-cUn-1" value="" style="sketch=0;outlineConnect=0;fontColor=#232F3E;gradientColor=none;fillColor=#7AA116;strokeColor=none;dashed=0;verticalLabelPosition=bottom;verticalAlign=top;align=center;html=1;fontSize=12;fontStyle=0;aspect=fixed;pointerEvents=1;shape=mxgraph.aws4.iot_thing_plc;" vertex="1" parent="1">
          <mxGeometry x="650" y="511" width="78" height="78" as="geometry" />
        </mxCell>
        <mxCell id="IAKLpK5OhS-ixHeD-cUn-3" value="" style="html=1;verticalLabelPosition=bottom;align=center;labelBackgroundColor=#ffffff;verticalAlign=top;strokeWidth=2;strokeColor=#0080F0;shadow=0;dashed=0;shape=mxgraph.ios7.icons.lightbulb;rotation=-180;" vertex="1" parent="1">
          <mxGeometry x="348.6" y="450" width="22.8" height="29.7" as="geometry" />
        </mxCell>
        <mxCell id="IAKLpK5OhS-ixHeD-cUn-5" value="Resistive Heater" style="text;html=1;strokeColor=none;fillColor=none;align=center;verticalAlign=middle;whiteSpace=wrap;rounded=0;" vertex="1" parent="1">
          <mxGeometry x="230" y="449.7" width="60" height="30" as="geometry" />
        </mxCell>
        <mxCell id="IAKLpK5OhS-ixHeD-cUn-7" value="LED Panel" style="text;html=1;strokeColor=none;fillColor=none;align=center;verticalAlign=middle;whiteSpace=wrap;rounded=0;" vertex="1" parent="1">
          <mxGeometry x="330" y="470" width="60" height="30" as="geometry" />
        </mxCell>
        <mxCell id="IAKLpK5OhS-ixHeD-cUn-8" value="" style="endArrow=none;html=1;rounded=0;fillColor=#008a00;strokeColor=#005700;" edge="1" parent="1">
          <mxGeometry width="50" height="50" relative="1" as="geometry">
            <mxPoint x="360" y="449.7" as="sourcePoint" />
            <mxPoint x="360" y="360" as="targetPoint" />
          </mxGeometry>
        </mxCell>
        <mxCell id="IAKLpK5OhS-ixHeD-cUn-9" value="" style="endArrow=none;html=1;rounded=0;fillColor=#008a00;strokeColor=#005700;" edge="1" parent="1">
          <mxGeometry width="50" height="50" relative="1" as="geometry">
            <mxPoint x="360" y="360" as="sourcePoint" />
            <mxPoint x="690" y="360" as="targetPoint" />
          </mxGeometry>
        </mxCell>
        <mxCell id="IAKLpK5OhS-ixHeD-cUn-49" value="PWM Control" style="edgeLabel;html=1;align=center;verticalAlign=middle;resizable=0;points=[];" vertex="1" connectable="0" parent="IAKLpK5OhS-ixHeD-cUn-9">
          <mxGeometry x="0.054" y="1" relative="1" as="geometry">
            <mxPoint as="offset" />
          </mxGeometry>
        </mxCell>
        <mxCell id="IAKLpK5OhS-ixHeD-cUn-10" value="" style="endArrow=none;html=1;rounded=0;fillColor=#008a00;strokeColor=#005700;" edge="1" parent="1" source="IAKLpK5OhS-ixHeD-cUn-1">
          <mxGeometry width="50" height="50" relative="1" as="geometry">
            <mxPoint x="650" y="410" as="sourcePoint" />
            <mxPoint x="690" y="360" as="targetPoint" />
          </mxGeometry>
        </mxCell>
        <mxCell id="IAKLpK5OhS-ixHeD-cUn-15" value="" style="endArrow=none;html=1;rounded=0;fillColor=#d80073;strokeColor=#A50040;" edge="1" parent="1" source="IAKLpK5OhS-ixHeD-cUn-36" target="IAKLpK5OhS-ixHeD-cUn-4">
          <mxGeometry width="50" height="50" relative="1" as="geometry">
            <mxPoint x="140" y="520" as="sourcePoint" />
            <mxPoint x="300" y="470" as="targetPoint" />
          </mxGeometry>
        </mxCell>
        <mxCell id="IAKLpK5OhS-ixHeD-cUn-16" value="Heating &amp;amp; Cooling Liquid" style="shape=cylinder3;whiteSpace=wrap;html=1;boundedLbl=1;backgroundOutline=1;size=15;" vertex="1" parent="1">
          <mxGeometry x="315" y="620" width="90" height="70" as="geometry" />
        </mxCell>
        <mxCell id="IAKLpK5OhS-ixHeD-cUn-19" value="" style="shape=cylinder3;whiteSpace=wrap;html=1;boundedLbl=1;backgroundOutline=1;size=3.3333333333332575;" vertex="1" parent="1">
          <mxGeometry x="338.6" y="564.5" width="10" height="81" as="geometry" />
        </mxCell>
        <mxCell id="IAKLpK5OhS-ixHeD-cUn-21" value="" style="shape=cylinder3;whiteSpace=wrap;html=1;boundedLbl=1;backgroundOutline=1;size=3.3333333333332575;" vertex="1" parent="1">
          <mxGeometry x="371.4" y="564.5" width="10" height="81" as="geometry" />
        </mxCell>
        <mxCell id="IAKLpK5OhS-ixHeD-cUn-20" value="" style="shape=cylinder3;whiteSpace=wrap;html=1;boundedLbl=1;backgroundOutline=1;size=3.3333333333332575;" vertex="1" parent="1">
          <mxGeometry x="355" y="564.5" width="10" height="81" as="geometry" />
        </mxCell>
        <mxCell id="IAKLpK5OhS-ixHeD-cUn-17" value="&lt;span style=&quot;caret-color: rgb(0, 0, 0); color: rgb(0, 0, 0); font-style: normal; font-variant-caps: normal; letter-spacing: normal; text-align: start; text-indent: 0px; text-transform: none; word-spacing: 0px; -webkit-text-stroke-width: 0px; text-decoration: none;&quot; class=&quot;notion-enable-hover&quot; data-token-index=&quot;0&quot;&gt;Irrigation Water Tank&lt;/span&gt;" style="shape=cylinder3;whiteSpace=wrap;html=1;boundedLbl=1;backgroundOutline=1;size=15;" vertex="1" parent="1">
          <mxGeometry x="320" y="580" width="80" height="50" as="geometry" />
        </mxCell>
        <mxCell id="IAKLpK5OhS-ixHeD-cUn-24" value="" style="shape=cylinder3;whiteSpace=wrap;html=1;boundedLbl=1;backgroundOutline=1;size=1.6666666666666288;" vertex="1" parent="1">
          <mxGeometry x="355" y="550" width="10" height="50" as="geometry" />
        </mxCell>
        <mxCell id="IAKLpK5OhS-ixHeD-cUn-2" value="flower pot" style="shape=cylinder3;whiteSpace=wrap;html=1;boundedLbl=1;backgroundOutline=1;size=11;" vertex="1" parent="1">
          <mxGeometry x="330" y="511" width="60" height="80" as="geometry" />
        </mxCell>
        <mxCell id="IAKLpK5OhS-ixHeD-cUn-22" value="" style="endArrow=none;dashed=1;html=1;rounded=0;exitX=0.931;exitY=0.858;exitDx=0;exitDy=0;exitPerimeter=0;" edge="1" parent="1" source="IAKLpK5OhS-ixHeD-cUn-21" target="IAKLpK5OhS-ixHeD-cUn-23">
          <mxGeometry width="50" height="50" relative="1" as="geometry">
            <mxPoint x="381.0000000000001" y="633.6645299145299" as="sourcePoint" />
            <mxPoint x="469.6" y="610" as="targetPoint" />
          </mxGeometry>
        </mxCell>
        <mxCell id="IAKLpK5OhS-ixHeD-cUn-23" value="&lt;p style=&quot;margin: 0px; font-style: normal; font-variant-caps: normal; font-stretch: normal; font-size: 8px; line-height: normal; font-family: &amp;quot;.SF NS&amp;quot;; font-size-adjust: none; font-kerning: auto; font-variant-alternates: normal; font-variant-ligatures: normal; font-variant-numeric: normal; font-variant-east-asian: normal; font-variant-position: normal; font-feature-settings: normal; font-optical-sizing: auto; font-variation-settings: normal; color: rgba(0, 0, 0, 0.85);&quot;&gt;Temperature Conduction&lt;br&gt;Tube&lt;/p&gt;" style="text;html=1;strokeColor=none;fillColor=none;align=center;verticalAlign=middle;whiteSpace=wrap;rounded=0;fontSize=8;" vertex="1" parent="1">
          <mxGeometry x="470" y="615.5" width="60" height="30" as="geometry" />
        </mxCell>
        <mxCell id="IAKLpK5OhS-ixHeD-cUn-25" value="" style="endArrow=none;dashed=1;html=1;dashPattern=1 3;strokeWidth=2;rounded=0;exitX=1;exitY=1;exitDx=0;exitDy=-1.6666666666666288;exitPerimeter=0;entryX=0.5;entryY=1;entryDx=0;entryDy=0;" edge="1" parent="1" source="IAKLpK5OhS-ixHeD-cUn-24" target="IAKLpK5OhS-ixHeD-cUn-27">
          <mxGeometry width="50" height="50" relative="1" as="geometry">
            <mxPoint x="420" y="589" as="sourcePoint" />
            <mxPoint x="470" y="570" as="targetPoint" />
          </mxGeometry>
        </mxCell>
        <mxCell id="IAKLpK5OhS-ixHeD-cUn-27" value="&lt;p style=&quot;margin: 0px; font-style: normal; font-variant-caps: normal; font-stretch: normal; font-size: 8px; line-height: normal; font-family: &amp;quot;.SF NS&amp;quot;; font-size-adjust: none; font-kerning: auto; font-variant-alternates: normal; font-variant-ligatures: normal; font-variant-numeric: normal; font-variant-east-asian: normal; font-variant-position: normal; font-feature-settings: normal; font-optical-sizing: auto; font-variation-settings: normal; color: rgba(0, 0, 0, 0.85);&quot;&gt;Irrigation&lt;/p&gt;&lt;p style=&quot;margin: 0px; font-style: normal; font-variant-caps: normal; font-stretch: normal; font-size: 8px; line-height: normal; font-family: &amp;quot;.SF NS&amp;quot;; font-size-adjust: none; font-kerning: auto; font-variant-alternates: normal; font-variant-ligatures: normal; font-variant-numeric: normal; font-variant-east-asian: normal; font-variant-position: normal; font-feature-settings: normal; font-optical-sizing: auto; font-variation-settings: normal; color: rgba(0, 0, 0, 0.85);&quot;&gt;Tube&lt;/p&gt;" style="text;html=1;strokeColor=none;fillColor=none;align=center;verticalAlign=middle;whiteSpace=wrap;rounded=0;fontSize=8;" vertex="1" parent="1">
          <mxGeometry x="470" y="570" width="60" height="30" as="geometry" />
        </mxCell>
        <mxCell id="IAKLpK5OhS-ixHeD-cUn-28" value="" style="endArrow=none;dashed=1;html=1;dashPattern=1 3;strokeWidth=2;rounded=0;" edge="1" parent="1" target="IAKLpK5OhS-ixHeD-cUn-17">
          <mxGeometry width="50" height="50" relative="1" as="geometry">
            <mxPoint x="250" y="620" as="sourcePoint" />
            <mxPoint x="300" y="610" as="targetPoint" />
          </mxGeometry>
        </mxCell>
        <mxCell id="IAKLpK5OhS-ixHeD-cUn-29" value="" style="endArrow=none;dashed=1;html=1;dashPattern=1 3;strokeWidth=2;rounded=0;entryX=1;entryY=1;entryDx=0;entryDy=0;" edge="1" parent="1" source="IAKLpK5OhS-ixHeD-cUn-16" target="IAKLpK5OhS-ixHeD-cUn-67">
          <mxGeometry width="50" height="50" relative="1" as="geometry">
            <mxPoint x="200" y="670" as="sourcePoint" />
            <mxPoint x="250" y="620" as="targetPoint" />
          </mxGeometry>
        </mxCell>
        <mxCell id="IAKLpK5OhS-ixHeD-cUn-30" value="Water Pump Inside" style="shape=mxgraph.pid.pumps_-_din.hydraulic;html=1;pointerEvents=1;align=center;verticalLabelPosition=bottom;verticalAlign=top;dashed=0;" vertex="1" parent="1">
          <mxGeometry x="220" y="600" width="30" height="30" as="geometry" />
        </mxCell>
        <mxCell id="IAKLpK5OhS-ixHeD-cUn-36" value="Additional DC Power&lt;br&gt;" style="pointerEvents=1;verticalLabelPosition=bottom;shadow=0;dashed=0;align=center;html=1;verticalAlign=top;shape=mxgraph.electrical.signal_sources.dc_source_1;" vertex="1" parent="1">
          <mxGeometry x="90" y="500" width="40" height="40" as="geometry" />
        </mxCell>
        <mxCell id="IAKLpK5OhS-ixHeD-cUn-61" value="" style="edgeStyle=orthogonalEdgeStyle;rounded=0;orthogonalLoop=1;jettySize=auto;html=1;fillColor=#0050ef;strokeColor=#001DBC;" edge="1" parent="1" source="IAKLpK5OhS-ixHeD-cUn-57" target="IAKLpK5OhS-ixHeD-cUn-1">
          <mxGeometry relative="1" as="geometry">
            <Array as="points" />
          </mxGeometry>
        </mxCell>
        <mxCell id="IAKLpK5OhS-ixHeD-cUn-62" value="Analog Input" style="edgeLabel;html=1;align=center;verticalAlign=middle;resizable=0;points=[];" vertex="1" connectable="0" parent="IAKLpK5OhS-ixHeD-cUn-61">
          <mxGeometry x="0.6783" relative="1" as="geometry">
            <mxPoint x="-62" y="-2" as="offset" />
          </mxGeometry>
        </mxCell>
        <mxCell id="IAKLpK5OhS-ixHeD-cUn-50" value="" style="endArrow=none;html=1;rounded=0;fillColor=#d80073;strokeColor=#A50040;" edge="1" parent="1" source="IAKLpK5OhS-ixHeD-cUn-37" target="IAKLpK5OhS-ixHeD-cUn-36">
          <mxGeometry width="50" height="50" relative="1" as="geometry">
            <mxPoint x="70" y="589" as="sourcePoint" />
            <mxPoint x="120" y="539" as="targetPoint" />
            <Array as="points">
              <mxPoint x="130" y="740" />
            </Array>
          </mxGeometry>
        </mxCell>
        <mxCell id="IAKLpK5OhS-ixHeD-cUn-52" value="" style="endArrow=none;html=1;rounded=0;fillColor=#d80073;strokeColor=#A50040;" edge="1" parent="1" source="IAKLpK5OhS-ixHeD-cUn-38" target="IAKLpK5OhS-ixHeD-cUn-36">
          <mxGeometry width="50" height="50" relative="1" as="geometry">
            <mxPoint x="130" y="620" as="sourcePoint" />
            <mxPoint x="180" y="570" as="targetPoint" />
            <Array as="points">
              <mxPoint x="170" y="720" />
            </Array>
          </mxGeometry>
        </mxCell>
        <mxCell id="IAKLpK5OhS-ixHeD-cUn-83" style="edgeStyle=orthogonalEdgeStyle;rounded=0;orthogonalLoop=1;jettySize=auto;html=1;endArrow=none;endFill=0;fillColor=#ffcd28;gradientColor=#ffa500;strokeColor=#d79b00;" edge="1" parent="1" source="IAKLpK5OhS-ixHeD-cUn-53" target="IAKLpK5OhS-ixHeD-cUn-1">
          <mxGeometry relative="1" as="geometry" />
        </mxCell>
        <mxCell id="IAKLpK5OhS-ixHeD-cUn-53" value="" style="html=1;strokeWidth=1;shadow=0;dashed=0;shape=mxgraph.ios7.misc.bluetooth;fillColor=#007AFF;strokeColor=none;buttonText=;strokeColor2=#222222;fontColor=#222222;fontSize=8;verticalLabelPosition=bottom;verticalAlign=top;align=center;sketch=0;" vertex="1" parent="1">
          <mxGeometry x="790" y="543" width="15" height="15" as="geometry" />
        </mxCell>
        <mxCell id="IAKLpK5OhS-ixHeD-cUn-54" value="" style="sketch=0;aspect=fixed;pointerEvents=1;shadow=0;dashed=0;html=1;strokeColor=none;labelPosition=center;verticalLabelPosition=bottom;verticalAlign=top;align=center;fillColor=#00188D;shape=mxgraph.azure.computer" vertex="1" parent="1">
          <mxGeometry x="664" y="930" width="50" height="45" as="geometry" />
        </mxCell>
        <mxCell id="IAKLpK5OhS-ixHeD-cUn-55" value="" style="html=1;strokeWidth=1;shadow=0;dashed=0;shape=mxgraph.ios7.misc.bluetooth;fillColor=#007AFF;strokeColor=none;buttonText=;strokeColor2=#222222;fontColor=#222222;fontSize=8;verticalLabelPosition=bottom;verticalAlign=top;align=center;sketch=0;" vertex="1" parent="1">
          <mxGeometry x="790" y="945" width="15" height="15" as="geometry" />
        </mxCell>
        <mxCell id="IAKLpK5OhS-ixHeD-cUn-57" value="InPot Temp/Hum Sensor&lt;br&gt;&amp;nbsp;" style="sketch=0;outlineConnect=0;fontColor=#232F3E;gradientColor=none;fillColor=#7AA116;strokeColor=none;dashed=0;verticalLabelPosition=bottom;verticalAlign=top;align=center;html=1;fontSize=12;fontStyle=0;aspect=fixed;pointerEvents=1;shape=mxgraph.aws4.iot_thing_temperature_humidity_sensor;" vertex="1" parent="1">
          <mxGeometry x="443" y="513" width="27" height="27" as="geometry" />
        </mxCell>
        <mxCell id="IAKLpK5OhS-ixHeD-cUn-66" value="Analog Input" style="edgeStyle=orthogonalEdgeStyle;rounded=0;orthogonalLoop=1;jettySize=auto;html=1;fillColor=#0050ef;strokeColor=#001DBC;" edge="1" parent="1" source="IAKLpK5OhS-ixHeD-cUn-58" target="IAKLpK5OhS-ixHeD-cUn-1">
          <mxGeometry relative="1" as="geometry">
            <mxPoint x="270" y="725.5285714285715" as="sourcePoint" />
            <mxPoint x="670.0285714285715" y="564.5" as="targetPoint" />
            <Array as="points">
              <mxPoint x="310" y="755" />
              <mxPoint x="310" y="725" />
              <mxPoint x="660" y="725" />
            </Array>
          </mxGeometry>
        </mxCell>
        <mxCell id="IAKLpK5OhS-ixHeD-cUn-81" value="Analog Input" style="edgeStyle=orthogonalEdgeStyle;rounded=0;orthogonalLoop=1;jettySize=auto;html=1;" edge="1" parent="1" source="IAKLpK5OhS-ixHeD-cUn-59" target="IAKLpK5OhS-ixHeD-cUn-1">
          <mxGeometry relative="1" as="geometry">
            <Array as="points">
              <mxPoint x="670" y="475" />
            </Array>
          </mxGeometry>
        </mxCell>
        <mxCell id="IAKLpK5OhS-ixHeD-cUn-59" value="Ambient Light Sensor" style="verticalLabelPosition=bottom;shadow=0;dashed=0;align=center;html=1;verticalAlign=top;shape=mxgraph.electrical.opto_electronics.photo_resistor_1;fillColor=#b0e3e6;strokeColor=#0e8088;" vertex="1" parent="1">
          <mxGeometry x="459.99999999999994" y="459.99999999999994" width="33.33" height="30" as="geometry" />
        </mxCell>
        <mxCell id="IAKLpK5OhS-ixHeD-cUn-79" style="edgeStyle=orthogonalEdgeStyle;rounded=0;orthogonalLoop=1;jettySize=auto;html=1;" edge="1" parent="1" source="IAKLpK5OhS-ixHeD-cUn-4" target="IAKLpK5OhS-ixHeD-cUn-1">
          <mxGeometry relative="1" as="geometry">
            <Array as="points">
              <mxPoint x="680" y="440" />
            </Array>
          </mxGeometry>
        </mxCell>
        <mxCell id="IAKLpK5OhS-ixHeD-cUn-80" value="Digital Enable/Disable Control" style="edgeLabel;html=1;align=center;verticalAlign=middle;resizable=0;points=[];" vertex="1" connectable="0" parent="IAKLpK5OhS-ixHeD-cUn-79">
          <mxGeometry x="-0.2426" y="2" relative="1" as="geometry">
            <mxPoint as="offset" />
          </mxGeometry>
        </mxCell>
        <mxCell id="IAKLpK5OhS-ixHeD-cUn-4" value="" style="ellipse;whiteSpace=wrap;html=1;fillColor=none;shadow=1;" vertex="1" parent="1">
          <mxGeometry x="300" y="424.85" width="120" height="80" as="geometry" />
        </mxCell>
        <mxCell id="IAKLpK5OhS-ixHeD-cUn-67" value="Heating &amp; Cooling Liquid Tank" style="swimlane;rotation=-90;" vertex="1" parent="1">
          <mxGeometry x="90" y="730" width="200" height="200" as="geometry" />
        </mxCell>
        <mxCell id="IAKLpK5OhS-ixHeD-cUn-38" value="Water Heater" style="verticalLabelPosition=bottom;aspect=fixed;html=1;verticalAlign=top;fillColor=strokeColor;align=center;outlineConnect=0;shape=mxgraph.fluid_power.x12290;points=[[0.5,0,0],[0.5,1,0]]" vertex="1" parent="IAKLpK5OhS-ixHeD-cUn-67">
          <mxGeometry x="103.15" y="60" width="23.69" height="45" as="geometry" />
        </mxCell>
        <mxCell id="IAKLpK5OhS-ixHeD-cUn-37" value="Semiconductor Refrigeration Sheet" style="verticalLabelPosition=bottom;outlineConnect=0;align=center;dashed=0;html=1;verticalAlign=top;shape=mxgraph.pid.misc.cooling_tower" vertex="1" parent="IAKLpK5OhS-ixHeD-cUn-67">
          <mxGeometry x="100" y="130" width="30" height="50" as="geometry" />
        </mxCell>
        <mxCell id="IAKLpK5OhS-ixHeD-cUn-68" value="Water Pump Inside" style="shape=mxgraph.pid.pumps_-_din.hydraulic;html=1;pointerEvents=1;align=center;verticalLabelPosition=bottom;verticalAlign=top;dashed=0;" vertex="1" parent="IAKLpK5OhS-ixHeD-cUn-67">
          <mxGeometry x="160" y="60" width="30" height="30" as="geometry" />
        </mxCell>
        <mxCell id="IAKLpK5OhS-ixHeD-cUn-58" value="In Tank Temp Sensor&lt;br&gt;" style="sketch=0;outlineConnect=0;fontColor=#232F3E;gradientColor=none;fillColor=#7AA116;strokeColor=none;dashed=0;verticalLabelPosition=bottom;verticalAlign=top;align=center;html=1;fontSize=12;fontStyle=0;aspect=fixed;pointerEvents=1;shape=mxgraph.aws4.iot_thing_temperature_sensor;" vertex="1" parent="IAKLpK5OhS-ixHeD-cUn-67">
          <mxGeometry x="160" y="10" width="30" height="30" as="geometry" />
        </mxCell>
        <mxCell id="IAKLpK5OhS-ixHeD-cUn-69" value="" style="endArrow=none;html=1;rounded=0;fillColor=#d80073;strokeColor=#A50040;" edge="1" parent="1" source="IAKLpK5OhS-ixHeD-cUn-68" target="IAKLpK5OhS-ixHeD-cUn-36">
          <mxGeometry width="50" height="50" relative="1" as="geometry">
            <mxPoint x="204" y="800" as="sourcePoint" />
            <mxPoint x="136" y="541" as="targetPoint" />
            <Array as="points">
              <mxPoint x="170" y="680" />
            </Array>
          </mxGeometry>
        </mxCell>
        <mxCell id="IAKLpK5OhS-ixHeD-cUn-70" value="" style="endArrow=none;html=1;rounded=0;fillColor=#d80073;strokeColor=#A50040;exitX=0.157;exitY=0.486;exitDx=0;exitDy=0;exitPerimeter=0;" edge="1" parent="1" source="IAKLpK5OhS-ixHeD-cUn-30" target="IAKLpK5OhS-ixHeD-cUn-36">
          <mxGeometry width="50" height="50" relative="1" as="geometry">
            <mxPoint x="208" y="750" as="sourcePoint" />
            <mxPoint x="128" y="550" as="targetPoint" />
            <Array as="points">
              <mxPoint x="180" y="580" />
            </Array>
          </mxGeometry>
        </mxCell>
        <mxCell id="IAKLpK5OhS-ixHeD-cUn-73" style="edgeStyle=orthogonalEdgeStyle;rounded=0;orthogonalLoop=1;jettySize=auto;html=1;fillColor=#b1ddf0;strokeColor=#10739e;" edge="1" parent="1" source="IAKLpK5OhS-ixHeD-cUn-68" target="IAKLpK5OhS-ixHeD-cUn-1">
          <mxGeometry relative="1" as="geometry">
            <Array as="points">
              <mxPoint x="680" y="805" />
            </Array>
          </mxGeometry>
        </mxCell>
        <mxCell id="IAKLpK5OhS-ixHeD-cUn-75" value="Digital Enable/Disable Control" style="edgeLabel;html=1;align=center;verticalAlign=middle;resizable=0;points=[];" vertex="1" connectable="0" parent="IAKLpK5OhS-ixHeD-cUn-73">
          <mxGeometry x="-0.6842" relative="1" as="geometry">
            <mxPoint as="offset" />
          </mxGeometry>
        </mxCell>
        <mxCell id="IAKLpK5OhS-ixHeD-cUn-74" style="edgeStyle=orthogonalEdgeStyle;rounded=0;orthogonalLoop=1;jettySize=auto;html=1;fillColor=#b1ddf0;strokeColor=#10739e;" edge="1" parent="1" source="IAKLpK5OhS-ixHeD-cUn-38" target="IAKLpK5OhS-ixHeD-cUn-1">
          <mxGeometry relative="1" as="geometry">
            <mxPoint x="700" y="590" as="targetPoint" />
            <Array as="points">
              <mxPoint x="689" y="820" />
            </Array>
          </mxGeometry>
        </mxCell>
        <mxCell id="IAKLpK5OhS-ixHeD-cUn-76" value="Digital Enable/Disable Control" style="edgeLabel;html=1;align=center;verticalAlign=middle;resizable=0;points=[];" vertex="1" connectable="0" parent="IAKLpK5OhS-ixHeD-cUn-74">
          <mxGeometry x="0.0083" relative="1" as="geometry">
            <mxPoint as="offset" />
          </mxGeometry>
        </mxCell>
        <mxCell id="IAKLpK5OhS-ixHeD-cUn-77" style="edgeStyle=orthogonalEdgeStyle;rounded=0;orthogonalLoop=1;jettySize=auto;html=1;fillColor=#b1ddf0;strokeColor=#10739e;" edge="1" parent="1" source="IAKLpK5OhS-ixHeD-cUn-37" target="IAKLpK5OhS-ixHeD-cUn-1">
          <mxGeometry relative="1" as="geometry">
            <Array as="points">
              <mxPoint x="700" y="885" />
            </Array>
          </mxGeometry>
        </mxCell>
        <mxCell id="IAKLpK5OhS-ixHeD-cUn-78" value="&lt;p style=&quot;margin: 0px; font-style: normal; font-variant-caps: normal; font-stretch: normal; line-height: normal; font-size-adjust: none; font-kerning: auto; font-variant-alternates: normal; font-variant-ligatures: normal; font-variant-numeric: normal; font-variant-east-asian: normal; font-variant-position: normal; font-feature-settings: normal; font-optical-sizing: auto; font-variation-settings: normal; color: rgba(0, 0, 0, 0.85);&quot;&gt;&lt;font face=&quot;Helvetica&quot; style=&quot;font-size: 12px;&quot;&gt;Digital Enable/Disable Control&lt;/font&gt;&lt;/p&gt;" style="edgeLabel;html=1;align=center;verticalAlign=middle;resizable=0;points=[];" vertex="1" connectable="0" parent="IAKLpK5OhS-ixHeD-cUn-77">
          <mxGeometry x="-0.2545" relative="1" as="geometry">
            <mxPoint as="offset" />
          </mxGeometry>
        </mxCell>
        <mxCell id="IAKLpK5OhS-ixHeD-cUn-84" style="rounded=1;orthogonalLoop=1;jettySize=auto;html=1;entryX=0.562;entryY=0.371;entryDx=0;entryDy=0;entryPerimeter=0;dashed=1;fillColor=#fff2cc;gradientColor=#ffd966;strokeColor=#d6b656;endArrow=none;endFill=0;" edge="1" parent="1" source="IAKLpK5OhS-ixHeD-cUn-53" target="IAKLpK5OhS-ixHeD-cUn-55">
          <mxGeometry relative="1" as="geometry" />
        </mxCell>
        <mxCell id="IAKLpK5OhS-ixHeD-cUn-86" value="Bluetooth &lt;br&gt;Connection" style="edgeLabel;html=1;align=center;verticalAlign=middle;resizable=0;points=[];" vertex="1" connectable="0" parent="IAKLpK5OhS-ixHeD-cUn-84">
          <mxGeometry x="-0.1325" y="-1" relative="1" as="geometry">
            <mxPoint as="offset" />
          </mxGeometry>
        </mxCell>
        <mxCell id="IAKLpK5OhS-ixHeD-cUn-85" style="edgeStyle=orthogonalEdgeStyle;rounded=0;orthogonalLoop=1;jettySize=auto;html=1;entryX=0.029;entryY=0.486;entryDx=0;entryDy=0;entryPerimeter=0;endArrow=none;endFill=0;fillColor=#ffcd28;gradientColor=#ffa500;strokeColor=#d79b00;" edge="1" parent="1" source="IAKLpK5OhS-ixHeD-cUn-54" target="IAKLpK5OhS-ixHeD-cUn-55">
          <mxGeometry relative="1" as="geometry" />
        </mxCell>
        <mxCell id="IAKLpK5OhS-ixHeD-cUn-91" value="Serial Communication" style="edgeStyle=orthogonalEdgeStyle;rounded=0;orthogonalLoop=1;jettySize=auto;html=1;" edge="1" parent="1" source="IAKLpK5OhS-ixHeD-cUn-90" target="IAKLpK5OhS-ixHeD-cUn-1">
          <mxGeometry relative="1" as="geometry">
            <Array as="points">
              <mxPoint x="769" y="540" />
            </Array>
          </mxGeometry>
        </mxCell>
        <mxCell id="IAKLpK5OhS-ixHeD-cUn-90" value="" style="swimlane;startSize=0;rounded=1;glass=0;shadow=1;arcSize=0;" vertex="1" parent="1">
          <mxGeometry x="714" y="300" width="110" height="130" as="geometry" />
        </mxCell>
        <mxCell id="IAKLpK5OhS-ixHeD-cUn-89" value="LCD Screen" style="sketch=0;pointerEvents=1;shadow=0;dashed=0;html=1;strokeColor=none;fillColor=#505050;labelPosition=center;verticalLabelPosition=bottom;verticalAlign=top;outlineConnect=0;align=center;shape=mxgraph.office.devices.lcd_monitor;" vertex="1" parent="IAKLpK5OhS-ixHeD-cUn-90">
          <mxGeometry x="35.5" y="10" width="39" height="32" as="geometry" />
        </mxCell>
        <mxCell id="IAKLpK5OhS-ixHeD-cUn-87" value="Buttons" style="labelPosition=center;verticalLabelPosition=middle;align=center;html=1;shape=mxgraph.basic.shaded_button;dx=6.14;fillColor=#E6E6E6;strokeColor=none;whiteSpace=wrap;" vertex="1" parent="IAKLpK5OhS-ixHeD-cUn-90">
          <mxGeometry x="25" y="80" width="60" height="40" as="geometry" />
        </mxCell>
      </root>
    </mxGraphModel>
  </diagram>
</mxfile>
